<?xml version="1.0" encoding="UTF-8"?>
<svg height="30px" version="1.1" viewBox="0 0 30 30" width="30px"
    xmlns="http://www.w3.org/2000/svg">
    <!-- Generator: Sketch 49.3 (51167) - http://www.bohemiancoding.com/sketch -->
    <title>Element/icon/waypoint/dangerous-roundsquare Copy</title>
    <desc>Created with Sketch.</desc>
    <defs></defs>
    <g fill="none" fill-rule="evenodd" id="Element/icon/waypoint/dangerous-roundsquare-Copy"
        stroke="none" stroke-width="1">
        <path
            d="M9.75541882,15.9364563 C9.81190854,16.5921018 9.92430303,17.322652 9.51124283,17.6786786 C9.09784836,18.0343718 9.00408879,18.0528689 9.41765039,18.8962344 C9.83079416,19.7383502 10.2635756,20.9373257 11.371894,20.975153 C12.4797945,21.0132303 13.0238005,21.0322272 13.0055834,20.797598 C12.9870321,20.5628854 12.4072603,20.2821801 11.7656507,20.2304384 C11.5665997,20.2207733 11.0917852,20.1110408 10.8827063,19.5141359 C10.557389,18.5840342 10.7891139,18.4465561 11.6342035,18.1279403 C12.4797945,17.8096577 12.8737184,17.7350029 13.6443518,17.1729259 C14.2263798,17.322652 17.2136499,18.4650532 18.8096517,17.5655299 C18.753162,17.8283214 19.1621275,18.6131962 19.6173043,19.6071211 C20.2378556,20.525308 20.4815302,21.0393094 21.346174,20.9976494 C22.210567,20.9562393 22.7734587,21.0888015 22.7734587,20.797598 C22.7734587,20.506561 22.2849396,20.1551171 21.7406828,20.2867627 C21.4021623,20.3052598 20.8195494,20.0004751 20.613061,18.9147315 C20.430138,17.9529682 20.323593,15.8729664 21.2081251,14.7921388 L21.2107156,14.7915555 C21.301049,15.0445152 21.4507969,15.3170551 21.6873686,15.6103417 C22.4930156,14.0238446 23.5415016,14.0940001 23.5415016,14.0940001 L23.5418359,14.0940001 L23.5429222,14.0940001 C26.1591652,14.4212812 26.267465,13.8951984 25.7598932,13.5015112 C25.2534076,13.1080739 25.0465015,12.921437 25.0090645,12.5465801 C24.9707919,12.1719732 24.7566156,11.2775324 23.8439222,11.1982118 C23.8439222,11.1982118 21.8027714,8.51014033 22.251263,11.1863803 C21.7255576,11.280032 21.7063377,11.4041789 21.1248111,11.5914824 C20.5417804,11.7782859 18.3640013,11.5513221 16.8750459,11.0673993 C9.85795268,9.01197698 4.3651628,18.8390769 5.05925102,19.3829902 C5.75475984,19.925737 7.95276157,18.3902318 9.75541882,15.9364563 Z"
            fill="#6D4C41" fill-rule="nonzero" id="Shape"></path>
    </g>
</svg>