<?xml version="1.0" encoding="UTF-8"?>
<svg height="30px" version="1.1" viewBox="0 0 30 30" width="30px"
    xmlns="http://www.w3.org/2000/svg">
    <!-- Generator: Sketch 49.3 (51167) - http://www.bohemiancoding.com/sketch -->
    <title>Element/icon/waypoint/dangerous-roundsquare</title>
    <desc>Created with Sketch.</desc>
    <defs></defs>
    <g fill="none" fill-rule="evenodd" id="Element/icon/waypoint/dangerous-roundsquare"
        stroke="none" stroke-width="1">
        <g fill="#E53935" fill-rule="nonzero" id="Group" transform="translate(6.000000, 7.000000)">
            <path
                d="M13.6291843,4.01737501 C12.2329847,3.83749388 12.3430273,5.09208103 12.0690838,6.03429871 C11.9261178,6.52707785 11.3061214,6.25558244 10.9475434,6.22439835 C10.649802,6.19832352 10.3549235,6.22281272 10.0969048,6.3521298 C9.02725452,5.45994762 7.6448326,4.92065661 6.13393812,4.92065661 C2.74641394,4.92065661 0,7.62468745 0,10.9603283 C0,14.2961453 2.74659287,17 6.13393812,17 C9.52128337,17 12.2678762,14.295793 12.2678762,10.9603283 C12.2678762,9.45855877 11.70979,8.08593014 10.7882947,7.02937078 C10.9276821,7.0151001 11.0903305,7.02214735 11.2862601,7.05896924 C11.7663323,7.1489979 12.2286903,7.08116809 12.5641862,6.71418241 C12.827036,6.4266545 12.8893041,6.01157132 12.9377944,5.64352855 C13.0048936,5.13207419 12.9930841,4.70342505 13.6288264,4.78517318 C14.1267918,4.84930318 14.1205292,4.0806241 13.6291843,4.01737501 Z M4.1118374,8.64865326 C3.29125923,9.22494234 2.80170366,10.1604651 2.80170366,11.1511327 C2.80170366,11.5403172 2.481238,11.8558579 2.08597913,11.8558579 C1.69072026,11.8558579 1.37025461,11.5403172 1.37025461,11.1511327 C1.37025461,9.70609352 2.08418982,8.34156923 3.28052337,7.50118435 C3.60170475,7.2753199 4.04903258,7.34825897 4.27860122,7.66556152 C4.50816986,7.9825117 4.43373451,8.42261263 4.1118374,8.64865326 Z"
                id="Shape"></path>
            <path
                d="M10.538536,2.73697552 C10.5944616,2.9638997 10.7383814,3.06293248 10.8595537,2.95829407 C10.980615,2.85407089 11.0335446,2.58479307 10.9778409,2.35786889 L10.4614163,0.263024478 C10.4054906,0.0361003014 10.2617927,-0.0629324821 10.1402876,0.0417059307 C10.1007845,0.0759625539 10.0682722,0.12828176 10.044415,0.190981762 C9.99614583,0.318665539 9.98482754,0.489533423 10.0223332,0.641715877 L10.538536,2.73697552 Z"
                id="Shape"></path>
            <path
                d="M14.1374532,2.95662063 C14.2570269,3.06342704 14.3995701,2.96619781 14.4561698,2.7396766 L14.9769968,0.647270184 C15.0334866,0.420540772 14.982382,0.150089436 14.8625885,0.0434912188 C14.7557635,-0.0518642178 14.6308046,0.0149678677 14.5648632,0.191312965 C14.55717,0.212757529 14.5499165,0.235659489 14.5438719,0.260227047 L14.022935,2.35284166 C13.9665551,2.57936287 14.0176597,2.84981421 14.1374532,2.95662063 Z"
                id="Shape"></path>
            <path
                d="M17.9855972,3.22608992 C17.9246264,3.06402547 17.6880915,2.96748235 17.457316,3.01005035 L15.3227422,3.40359571 C15.2202636,3.42251482 15.1364536,3.46563927 15.079852,3.52184016 C15.0081567,3.5923695 14.9805511,3.68404373 15.0143134,3.77404862 C15.0752842,3.93597396 15.3118191,4.03251708 15.543389,3.98994908 L17.6771684,3.5961255 C17.908341,3.55383572 18.046568,3.38787615 17.9855972,3.22608992 Z"
                id="Shape"></path>
            <path
                d="M16.7939901,6.63251723 L14.7674685,6.03709676 C14.5479324,5.97266174 14.2439765,5.99429482 14.0892068,6.08546945 C13.9342139,6.17673693 13.9862504,6.30300729 14.2060099,6.36744231 L16.2325315,6.96286279 C16.4518443,7.02739066 16.7555769,7.00566472 16.9107932,6.91449009 C17.0657861,6.82312977 17.0137496,6.69695226 16.7939901,6.63251723 Z"
                id="Shape"></path>
        </g>
    </g>
</svg>