<?xml version="1.0" encoding="UTF-8"?>
<svg height="30px" version="1.1" viewBox="0 0 30 30" width="30px"
    xmlns="http://www.w3.org/2000/svg">
    <!-- Generator: Sketch 49.3 (51167) - http://www.bohemiancoding.com/sketch -->
    <title>Element/icon/waypoint/food-roundsquare</title>
    <desc>Created with Sketch.</desc>
    <defs></defs>
    <g fill="none" fill-rule="evenodd" id="Element/icon/waypoint/food-roundsquare-" stroke="none"
        stroke-width="1">
        <g fill="#E0CA3C" fill-rule="nonzero" id="Group" transform="translate(10.000000, 7.000000)">
            <path
                d="M11,15.4215059 L10.6480587,0.578790652 C10.6480587,0.259194327 10.4116489,0 10.1201468,0 C10.0421783,0 9.96894744,0.0195898375 9.90262005,0.0532784216 L9.90262005,0.0477873308 C9.90262005,0.0477873308 9.8888808,0.0574338416 9.86925331,0.0721262197 C9.81876327,0.102698239 9.77341699,0.140319631 9.73422969,0.186326068 C9.34790646,0.533971479 8.11617969,1.95089552 8.01303383,3.86624735 C7.85662301,6.78780448 9.15095471,7.97098614 9.59189651,9.05466033 L9.24002292,15.4212091 C9.24002292,15.7407312 9.82837397,15.9999997 10.1198084,15.9999997 C10.4116489,16.0002966 11,15.7411022 11,15.4215059 Z"
                id="Shape"></path>
            <path
                d="M1.08337091,6.18198044 L2.15456643,6.68203622 C2.27663864,6.73922582 2.41120454,6.78094671 2.55181835,6.8119585 L2.13801427,15.5136281 C2.13801427,15.7824713 2.83002202,16 3.17252447,16 C3.51518608,16 4.20703467,15.7824713 4.20703467,15.5136281 L3.79323059,6.76741159 C3.93893737,6.72457517 4.07931245,6.67229391 4.20218043,6.60201539 L4.99580891,6.1503737 C5.56845009,5.82389469 6,5.10586398 6,4.47893504 L6,0.5800766 C6,0.2597702 5.72195549,0 5.37929388,0 C5.03679143,0 4.75858776,0.2597702 4.75858776,0.5800766 L4.75858776,4.09214294 L4.41385713,4.09214294 L4.41385713,0.5800766 C4.41385713,0.2597702 4.13581262,0 3.79315101,0 C3.45064856,0 3.17244489,0.2597702 3.17244489,0.5800766 L3.17244489,4.09214294 L2.8265206,4.09214294 L2.8265206,0.5800766 C2.8265206,0.2597702 2.54847609,0 2.20581448,0 C1.86331202,0 1.58510836,0.2597702 1.58510836,0.5800766 L1.58510836,4.09214294 L1.24141224,4.09214294 L1.24141224,0.705388019 C1.24141224,0.385155989 0.963367729,0.125311419 0.62070612,0.125311419 C0.278203666,0.125311419 0,0.385155989 0,0.705388019 L0,4.54371026 C0,5.18885955 0.465927478,5.89350389 1.08337091,6.18198044 Z"
                id="Shape"></path>
        </g>
    </g>
</svg>