<?xml version="1.0" encoding="UTF-8"?>
<svg height="30px" version="1.1" viewBox="0 0 30 30" width="30px"
    xmlns="http://www.w3.org/2000/svg">
    <!-- Generator: Sketch 49.3 (51167) - http://www.bohemiancoding.com/sketch -->
    <title>Element/icon/waypoint/gas-roundsquare</title>
    <desc>Created with Sketch.</desc>
    <defs></defs>
    <g fill="none" fill-rule="evenodd" id="Element/icon/waypoint/gas-roundsquare" stroke="none"
        stroke-width="1">
        <g fill="#0B9676" fill-rule="nonzero" id="Group" transform="translate(7.000000, 7.000000)">
            <path
                d="M15.5,15 L15,15 L15,6 L6,6 L6,7.73432927 L5.33333333,7.73432927 C4.15512587,7.73432927 3.2,8.65949598 3.2,9.80074695 L3.2,13.4169779 C3.2,13.9876034 2.72243707,14.4501867 2.13333333,14.4501867 C1.5442296,14.4501867 1.06666667,13.9876034 1.06666667,13.4169779 L1.06666667,7.99263148 L2.93333333,7.99263148 L2.93333333,6.70112043 L1.06666667,4.89300496 L1.06666667,4.84134452 L3.04,2.92990816 C3.20694789,2.8086247 3.28553137,2.60416724 3.24111086,2.40666058 C3.19669035,2.20915392 3.03742736,2.05488648 2.83352495,2.0118593 C2.62962254,1.96883211 2.41854425,2.04495069 2.29333333,2.20666197 L0.16,4.27307966 C0.0595123927,4.36846057 0.00200375886,4.49843838 0,4.63470275 L0,13.4169779 C1.77635684e-16,14.5582289 0.955125867,15.4833956 2.13333333,15.4833956 C3.3115408,15.4833956 4.26666667,14.5582289 4.26666667,13.4169779 L4.26666667,9.80074695 C4.26666667,9.23012147 4.7442296,8.76753811 5.33333333,8.76753811 L6,8.76753811 L6,15 L5.50585124,15 C5.21129937,15 5,15.2146873 5,15.5 C5,15.7853127 5.21129937,16 5.50585124,16 L15.5983968,16 C15.8929487,16 16,15.7853127 16,15.5 C16,15.2146873 15.7945519,15 15.5,15 Z M10,8 L14,8 L14,12 L10,12 L10,8 Z"
                id="Shape"></path>
            <path
                d="M15,0.909090909 C15,0.407013864 14.5259486,5.04646829e-17 13.9411765,0 L7.05882353,0 C6.47405144,-2.52323415e-17 6,0.407013864 6,0.909090909 L6,5 L15,5 L15,0.909090909 Z"
                id="Shape"></path>
            <polygon id="Shape" points="11 9 13 9 13 11 11 11"></polygon>
        </g>
    </g>
</svg>