<?xml version="1.0" encoding="UTF-8"?>
<svg height="30px" version="1.1" viewBox="0 0 30 30" width="30px"
    xmlns="http://www.w3.org/2000/svg">
    <!-- Generator: Sketch 49.3 (51167) - http://www.bohemiancoding.com/sketch -->
    <title>Element/icon/waypoint/image-roundsquare</title>
    <desc>Created with Sketch.</desc>
    <defs></defs>
    <g fill="none" fill-rule="evenodd" id="Element/icon/waypoint/image-roundsquare" stroke="none"
        stroke-width="1">
        <path
            d="M15.5,14 C14.1191667,14 13,15.1196667 13,16.5 C13,17.8808333 14.1191667,19 15.5,19 C16.8805,19 18,17.8808333 18,16.5 C18,15.1196667 16.8805,14 15.5,14 Z M21.4,11.4375 L19.48,11.4375 C19.216,11.4375 18.93152,11.2295 18.84816,10.975025 L18.35184,9.4623125 C18.26816,9.208 17.984,9 17.72,9 L12.28,9 C12.016,9 11.73152,9.208 11.64816,9.462475 L11.15184,10.9751875 C11.06816,11.2295 10.784,11.4375 10.52,11.4375 L8.6,11.4375 C7.72,11.4375 7,12.16875 7,13.0625 L7,20.375 C7,21.26875 7.72,22 8.6,22 L21.4,22 C22.28,22 23,21.26875 23,20.375 L23,13.0625 C23,12.16875 22.28,11.4375 21.4,11.4375 Z M15.5,20 C13.56702,20 12,18.43298 12,16.5 C12,14.56716 13.56702,13 15.5,13 C17.4327,13 19,14.56716 19,16.5 C19,18.43298 17.4327,20 15.5,20 Z M21.5,14 C21.224,14 21,13.7762857 21,13.5 C21,13.224 21.224,13 21.5,13 C21.7762857,13 22,13.224 22,13.5 C22,13.7762857 21.7761429,14 21.5,14 Z"
            fill="#D81B60" fill-rule="nonzero" id="Shape"></path>
    </g>
</svg>