<?xml version="1.0" encoding="UTF-8"?>
<svg height="30px" version="1.1" viewBox="0 0 30 30" width="30px"
    xmlns="http://www.w3.org/2000/svg">
    <!-- Generator: Sketch 49.3 (51167) - http://www.bohemiancoding.com/sketch -->
    <title>Element/icon/waypoint/landside-roundsquare</title>
    <desc>Created with Sketch.</desc>
    <defs></defs>
    <g fill="none" fill-rule="evenodd" id="Element/icon/waypoint/landside-roundsquare" stroke="none"
        stroke-width="1">
        <g fill="#6D4C41" fill-rule="nonzero" id="Group" transform="translate(6.000000, 7.000000)">
            <path
                d="M15.523659,12.8649306 L14.7214834,8.94532833 C14.7071013,8.87664068 14.6671383,8.81348429 14.607232,8.76432793 L13.0907074,7.52863773 L13.0907074,6.33332262 C13.0907074,6.24479117 13.0475611,6.16013474 12.9708566,6.0976346 L10.5634476,4.13572406 L8.13847318,0.184215422 C8.08573884,0.0985902343 7.99066361,0.035777597 7.87717931,0.0110275429 C7.7653058,-0.0133787605 7.64388257,0.0032150258 7.54558576,0.0559651411 L5.0910418,1.38931181 C5.0007606,1.43846816 4.9384382,1.51462458 4.91684588,1.60121852 L4.13783499,4.77472546 L2.68044951,5.36847676 C2.542228,5.42513313 2.45432465,5.54035213 2.45432465,5.66666491 L2.45432465,7.52863773 L0.937799999,8.76432793 C0.870683563,8.81870305 0.829148077,8.89029696 0.820327059,8.96679712 L0.00219687435,15.6334679 C-0.00980737973,15.7272182 0.0277778247,15.8206559 0.105287721,15.8903123 C0.182797617,15.9603124 0.293060334,16 0.40892248,16 L17.5907302,16 C17.74575,16 17.8871548,15.9287186 17.9566874,15.8157496 C18.02622,15.7027806 18.0110325,15.5676866 17.9183351,15.4667801 L15.523659,12.8649306 Z"
                id="Shape"></path>
            <path
                d="M15,6.50008907 C15,6.68954657 15.0268588,6.86236443 15.0690924,6.94734376 L15.5690865,7.94726876 C15.5866643,7.98242292 15.6057068,8 15.6249955,8 C15.6411085,8 15.6574676,7.98729763 15.6728422,7.96189289 C15.7062869,7.90620869 15.7321731,7.79540277 15.7436455,7.6582078 L15.9936367,4.65838593 C16.008531,4.47872473 15.9968124,4.28045525 15.9633678,4.14668194 L15.7133766,3.14675695 C15.6755375,2.99442224 15.617191,2.95631513 15.5690865,3.05301251 L15.0690924,4.05293751 C15.0268588,4.13791684 15,4.3107347 15,4.5001922 L15,6.50008907 Z"
                id="Shape"></path>
            <path
                d="M18.951093,11.2866183 L18.6177925,11.0366212 C18.5865451,11.0131836 18.5442361,11 18.4999585,11 L18.1666581,11 C18.0745407,11 18,11.0559104 18,11.1250044 L18,11.6249985 C18,11.6581979 18.0175767,11.6899441 18.0488241,11.7133817 L18.3821246,11.9633788 C18.4137001,11.9870624 18.456009,12 18.4999585,12 C18.5087547,12 18.5178633,11.9995078 18.5266438,11.998418 C18.5793738,11.9919492 18.6249482,11.9668007 18.6490243,11.9309177 L18.9823248,11.4309118 C19.0145565,11.3828062 19.00187,11.3247044 18.951093,11.2866183 Z"
                id="Shape"></path>
            <path
                d="M13.2631551,1.93090618 C13.2844,1.97326951 13.3276046,2 13.3749691,2 L13.624951,2 C13.6723155,2 13.7155201,1.97326951 13.736765,1.93090618 L13.9867468,1.43090179 C14.0109212,1.38280799 14.0013944,1.32469465 13.9633107,1.28660868 L13.7133288,1.03662406 C13.6644995,0.98779198 13.5854025,0.98779198 13.5365849,1.03662406 L13.323222,1.24999927 L13.1249872,1.24999927 C13.0817709,1.24999927 13.0414959,1.27246413 13.0185519,1.30933136 C12.9958422,1.34619858 12.993897,1.39221816 13.013185,1.43091351 L13.2631551,1.93090618 Z"
                id="Shape"></path>
        </g>
    </g>
</svg>