<?xml version="1.0" encoding="UTF-8"?>
<svg height="24px" version="1.1" viewBox="0 0 24 24" width="24px"
    xmlns="http://www.w3.org/2000/svg">
    <!-- Generator: Sketch 49.3 (51167) - http://www.bohemiancoding.com/sketch -->
    <title>Element/icon/waypoint/landside</title>
    <desc>Created with Sketch.</desc>
    <defs>
        <filter filterUnits="objectBoundingBox" height="300.0%" id="filter-1" width="150.0%"
            x="-25.0%" y="-100.0%">
            <feGaussianBlur in="SourceGraphic" stdDeviation="1"></feGaussianBlur>
        </filter>
    </defs>
    <g fill="none" fill-rule="evenodd" id="Element/icon/waypoint/landside" stroke="none"
        stroke-width="1">
        <ellipse cx="12" cy="21.5" fill="#000000" filter="url(#filter-1)" id="Oval-11"
            opacity="0.295969203" rx="6" ry="1.5"></ellipse>
        <path
            d="M12,1 C9.86961821,0.999959405 7.82721269,1.82894949 6.32550542,3.30321533 C4.82379816,4.77748117 3.98684158,6.77523722 4.00015647,8.85365854 C4.00015647,15.0021973 7.99731445,16.0535278 12,21 C15.9649658,16.0335693 19.9998435,14.9952393 19.9998435,8.85365854 C20.0131584,6.77523722 19.1762018,4.77748117 17.6744946,3.30321533 C16.1727873,1.82894949 14.1303818,0.999959405 12,1 Z"
            fill="#6D4C41" id="Shape"></path>
        <g fill="#FFFFFF" fill-rule="nonzero" id="001-landslide"
            transform="translate(8.000000, 5.000000)">
            <path
                d="M7.76182952,6.43246532 L7.3607417,4.47266416 C7.35355065,4.43832034 7.33356913,4.40674214 7.30361602,4.38216397 L6.5453537,3.76431886 L6.5453537,3.16666131 C6.5453537,3.12239559 6.52378056,3.08006737 6.48542831,3.0488173 L5.28172378,2.06786203 L4.06923659,0.0921077108 C4.04286942,0.0492951172 3.99533181,0.0178887985 3.93858965,0.00551377144 C3.8826529,-0.00668938024 3.82194129,0.0016075129 3.77279288,0.0279825706 L2.5455209,0.694655903 C2.5003803,0.719234082 2.4692191,0.75731229 2.45842294,0.80060926 L2.06891749,2.38736273 L1.34022475,2.68423838 C1.271114,2.71256656 1.22716232,2.77017607 1.22716232,2.83333245 L1.22716232,3.76431886 L0.4689,4.38216397 C0.435341781,4.40935152 0.414574038,4.44514848 0.41016353,4.48339856 L0.00109843717,7.81673397 C-0.00490368986,7.86360908 0.0138889124,7.91032793 0.0526438604,7.94515613 C0.0913988085,7.98015621 0.146530167,8 0.20446124,8 L8.79536511,8 C8.87287501,8 8.94357738,7.9643593 8.9783437,7.9078748 C9.01311001,7.8513903 9.00551626,7.78384328 8.95916757,7.73339004 L7.76182952,6.43246532 Z"
                id="Shape"></path>
            <path
                d="M8,4.40003563 C8,4.47581863 8.02685885,4.54494577 8.06909239,4.5789375 L8.56908647,4.9789075 C8.58666425,4.99296917 8.60570685,5 8.62499553,5 C8.6411085,5 8.65746755,4.99491905 8.67284225,4.98475716 C8.7062869,4.96248348 8.73217311,4.91816111 8.74364555,4.86328312 L8.99363673,3.66335437 C9.00853097,3.59148989 8.99681245,3.5121821 8.96336779,3.45867278 L8.71337661,3.05870278 C8.67553751,2.9977689 8.617191,2.98252605 8.56908647,3.02120501 L8.06909239,3.421175 C8.02685885,3.45516674 8,3.52429388 8,3.60007688 L8,4.40003563 Z"
                id="Shape"></path>
            <path
                d="M9.95109298,6.28661831 L9.6177925,6.03662124 C9.5865451,6.01318365 9.5442361,6 9.49995853,6 L9.16665805,6 C9.07454069,6 9,6.05591037 9,6.12500439 L9,6.62499854 C9,6.65819788 9.01757667,6.6899441 9.04882407,6.71338169 L9.38212455,6.96337876 C9.41370006,6.98706245 9.45600905,7 9.49995853,7 C9.50875467,7 9.51786329,6.99950781 9.52664381,6.99841796 C9.57937382,6.99194919 9.62494816,6.96680065 9.64902429,6.9309177 L9.98232476,6.43091184 C10.0145565,6.38280618 10.00187,6.32470439 9.95109298,6.28661831 Z"
                id="Shape"></path>
            <path
                d="M7.26315515,1.93090618 C7.28440003,1.97326951 7.32760461,2 7.3749691,2 L7.62495099,2 C7.67231549,2 7.71552006,1.97326951 7.73676495,1.93090618 L7.98674684,1.43090179 C8.01092125,1.38280799 8.00139444,1.32469465 7.96331067,1.28660868 L7.71332878,1.03662406 C7.66449953,0.98779198 7.58540246,0.98779198 7.53658492,1.03662406 L7.32322205,1.24999927 L7.12498722,1.24999927 C7.08177092,1.24999927 7.04149587,1.27246413 7.01855186,1.30933136 C6.99584221,1.34619858 6.99389701,1.39221816 7.01318498,1.43091351 L7.26315515,1.93090618 Z"
                id="Shape"></path>
        </g>
    </g>
</svg>