<?xml version="1.0" encoding="UTF-8"?>
<svg height="24px" version="1.1" viewBox="0 0 24 24" width="24px"
    xmlns="http://www.w3.org/2000/svg">
    <!-- Generator: Sketch 49.3 (51167) - http://www.bohemiancoding.com/sketch -->
    <title>Element/icon/waypoint/parking</title>
    <desc>Created with Sketch.</desc>
    <defs>
        <filter filterUnits="objectBoundingBox" height="300.0%" id="filter-1" width="150.0%"
            x="-25.0%" y="-100.0%">
            <feGaussianBlur in="SourceGraphic" stdDeviation="1"></feGaussianBlur>
        </filter>
    </defs>
    <g fill="none" fill-rule="evenodd" id="Element/icon/waypoint/parking" stroke="none"
        stroke-width="1">
        <ellipse cx="12" cy="21.5" fill="#000000" filter="url(#filter-1)" id="Oval-11"
            opacity="0.295969203" rx="6" ry="1.5"></ellipse>
        <path
            d="M12,1 C9.86961821,0.999959405 7.82721269,1.82894949 6.32550542,3.30321533 C4.82379816,4.77748117 3.98684158,6.77523722 4.00015647,8.85365854 C4.00015647,15.0021973 7.99731445,16.0535278 12,21 C15.9649658,16.0335693 19.9998435,14.9952393 19.9998435,8.85365854 C20.0131584,6.77523722 19.1762018,4.77748117 17.6744946,3.30321533 C16.1727873,1.82894949 14.1303818,0.999959405 12,1 Z"
            fill="#1E88E5" id="Shape"></path>
        <g id="008-parked-car" transform="translate(7.000000, 6.000000)">
            <g id="Group" transform="translate(9.000000, 0.000000)"></g>
            <path
                d="M6.71188155,2.40521892 C6.68142352,2.40521892 6.6501667,2.41016812 6.61890987,2.41987012 L6.26563833,2.52993087 L5.89885689,1.51927307 C5.79491059,1.23296585 5.48772549,1 5.21408938,1 L1.78104844,1 C1.5073776,1 1.20022723,1.23296585 1.09631566,1.51927307 L0.72998571,2.52851681 L0.381090118,2.41983084 C0.349868026,2.41012884 0.318611204,2.40517964 0.288153168,2.40517964 C0.12117228,2.40517964 0,2.54945271 0,2.74816696 L0,2.98368597 C0,3.21566984 0.166911429,3.40444642 0.37202564,3.40444642 L0.411999642,3.40444642 L0.35278533,3.56757358 C0.25623648,3.83349482 0.177642938,4.2838719 0.177642938,4.57147533 L0.177642938,6.57923955 C0.177642938,6.81122342 0.344554367,7 0.549668578,7 L1.03553851,7 C1.24065272,7 1.40756415,6.81122342 1.40756415,6.57923955 L1.40756415,6.07787787 L5.58753894,6.07787787 L5.58753894,6.57923955 C5.58753894,6.81122342 5.75445037,7 5.95956458,7 L6.44536505,7 C6.65047926,7 6.81739069,6.81122342 6.81739069,6.57923955 L6.81739069,4.57151461 C6.81739069,4.28395046 6.73879715,3.83357337 6.6422483,3.56761286 L6.58303399,3.4044857 L6.62797435,3.4044857 C6.83308856,3.4044857 6.99999999,3.21570912 6.99999999,2.98372525 L6.99999999,2.74820624 C7.00003472,2.54949199 6.87882771,2.40521892 6.71188155,2.40521892 Z M0.996675861,3.17595842 L1.55158864,1.64728449 C1.61375498,1.4760265 1.79851753,1.33587776 1.96219909,1.33587776 L5.03293873,1.33587776 C5.19662029,1.33587776 5.38138284,1.47598722 5.44354918,1.64728449 L5.99846196,3.17595842 C6.06059358,3.3472164 5.97755462,3.48736514 5.81387306,3.48736514 L1.18129949,3.48736514 C1.0175832,3.48732586 0.934544245,3.3472164 0.996675861,3.17595842 Z M2.23538371,5.10956321 C2.23538371,5.20214465 2.16838992,5.27783597 2.08660124,5.27783597 L1.03248229,5.27783597 C0.950624143,5.27783597 0.883665085,5.20210537 0.883665085,5.10956321 L0.883665085,4.53742013 C0.883665085,4.44487797 0.950624143,4.36914738 1.03248229,4.36914738 L2.08660124,4.36914738 C2.16838992,4.36914738 2.23538371,4.44487797 2.23538371,4.53742013 L2.23538371,5.10956321 Z M6.10147055,5.10956321 C6.10147055,5.20214465 6.03447676,5.27783597 5.95268808,5.27783597 L4.89856913,5.27783597 C4.81678044,5.27783597 4.74978665,5.20210537 4.74978665,5.10956321 L4.74978665,4.53742013 C4.74978665,4.44487797 4.81678044,4.36914738 4.89856913,4.36914738 L5.95268808,4.36914738 C6.03447676,4.36914738 6.10147055,4.44487797 6.10147055,4.53742013 L6.10147055,5.10956321 Z"
                fill="#FFFFFF" fill-rule="nonzero" id="Shape"></path>
            <path
                d="M9.47310127,0.0172690355 L7.5464557,0.0172690355 C7.26589873,0.0172690355 7.03767089,0.230857868 7.03767089,0.493340102 L7.03767089,2.29614213 C7.03767089,2.5586599 7.26593671,2.77224873 7.5464557,2.77224873 L8.31988608,2.77224873 L8.31988608,6.81846193 C8.31988608,6.91660406 8.40487342,6.9961269 8.50975949,6.9961269 C8.61464557,6.9961269 8.69963291,6.91660406 8.69963291,6.81846193 L8.69963291,2.77228426 L9.47310127,2.77228426 C9.75365823,2.77228426 9.98188608,2.55869543 9.98188608,2.29617766 L9.98188608,0.493375635 C9.98188608,0.230857868 9.75365823,0.0172690355 9.47310127,0.0172690355 Z M9.03673418,1.51203553 C8.92592405,1.60538071 8.76270886,1.65271066 8.55164557,1.65271066 L8.27264557,1.65271066 C8.2391519,1.65271066 8.21188608,1.67825888 8.21188608,1.70959898 L8.21188608,2.14981726 C8.21188608,2.19764467 8.1703038,2.23651777 8.11918987,2.23651777 L7.90789873,2.23651777 C7.85674684,2.23651777 7.81520253,2.19760914 7.81520253,2.14981726 L7.81520253,0.63984264 C7.81520253,0.591979695 7.85678481,0.553071066 7.90789873,0.553071066 L8.4401519,0.553071066 C8.79274684,0.553071066 8.92436709,0.602781726 9.03251899,0.688664975 C9.14659494,0.779238579 9.20439241,0.917959391 9.20439241,1.10106091 C9.20435443,1.27996954 9.148,1.41819289 9.03673418,1.51203553 Z"
                fill="#FFFFFF" fill-rule="nonzero" id="Shape"></path>
            <path
                d="M8.73472152,0.917639594 C8.68322785,0.881253807 8.59212658,0.86277665 8.464,0.86277665 L8.27264557,0.86277665 C8.2391519,0.86277665 8.21188608,0.88828934 8.21188608,0.919593909 L8.21188608,1.28139086 C8.21188608,1.31269543 8.2391519,1.33820812 8.27264557,1.33820812 L8.38729114,1.33820812 C8.42940506,1.33820812 8.4974557,1.33529442 8.53896203,1.33170558 C8.57925316,1.32825888 8.69298734,1.31283756 8.73472152,1.28334518 C8.78481013,1.24788325 8.81021519,1.1865533 8.81021519,1.10109645 C8.81021519,1.01482234 8.78481013,0.953101523 8.73472152,0.917639594 Z"
                fill="#FFFFFF" fill-rule="nonzero" id="Shape"></path>
        </g>
    </g>
</svg>