<?xml version="1.0" encoding="UTF-8"?>
<svg height="30px" version="1.1" viewBox="0 0 30 30" width="30px"
    xmlns="http://www.w3.org/2000/svg">
    <!-- Generator: Sketch 49.3 (51167) - http://www.bohemiancoding.com/sketch -->
    <title>Element/icon/waypoint/parking-roundsquare</title>
    <desc>Created with Sketch.</desc>
    <defs></defs>
    <g fill="none" fill-rule="evenodd" id="Element/icon/waypoint/parking-roundsquare" stroke="none"
        stroke-width="1">
        <g fill="#1E88E5" fill-rule="nonzero" id="Group" transform="translate(6.000000, 9.000000)">
            <path
                d="M12.4649229,3.81043783 C12.408358,3.81043783 12.3503096,3.82033623 12.2922612,3.83974023 L11.6361855,4.05986174 L10.9550199,2.03854614 C10.7619768,1.46593171 10.1914902,1 9.68330885,1 L3.30766139,1 C2.79941554,1 2.22899343,1.46593171 2.0360148,2.03854614 L1.35568775,4.05703362 L0.707738791,3.83966167 C0.649754906,3.82025767 0.591706523,3.81035928 0.535141598,3.81035928 C0.225034233,3.81035928 0,4.09890542 0,4.49633393 L0,4.96737195 C0,5.43133969 0.309978368,5.80889285 0.69090476,5.80889285 L0.765142193,5.80889285 L0.655172755,6.13514717 C0.475867748,6.66698963 0.329908313,7.56774379 0.329908313,8.14295067 L0.329908313,12.1584791 C0.329908313,12.6224468 0.639886681,13 1.02081307,13 L1.92314295,13 C2.30406934,13 2.61404771,12.6224468 2.61404771,12.1584791 L2.61404771,11.1557557 L10.376858,11.1557557 L10.376858,12.1584791 C10.376858,12.6224468 10.6868364,13 11.0677628,13 L11.9699637,13 C12.3508901,13 12.6608684,12.6224468 12.6608684,12.1584791 L12.6608684,8.14302922 C12.6608684,7.56790091 12.514909,6.66714675 12.335604,6.13522573 L12.2256346,5.8089714 L12.3090952,5.8089714 C12.6900216,5.8089714 13,5.43141825 13,4.96745051 L13,4.49641249 C13.0000645,4.09898397 12.7749658,3.81043783 12.4649229,3.81043783 Z M1.85096946,5.35191683 L2.88152176,2.29456897 C2.99697354,1.952053 3.34010399,1.67175553 3.64408402,1.67175553 L9.34688622,1.67175553 C9.65086625,1.67175553 9.99399669,1.95197444 10.1094485,2.29456897 L11.1400008,5.35191683 C11.2553881,5.69443281 11.1011729,5.97473028 10.7971928,5.97473028 L2.19384191,5.97473028 C1.88979737,5.97465172 1.73558217,5.69443281 1.85096946,5.35191683 Z M4.15142689,9.21912643 C4.15142689,9.40428931 4.02700986,9.55567194 3.87511659,9.55567194 L1.9174671,9.55567194 C1.76544484,9.55567194 1.6410923,9.40421075 1.6410923,9.21912643 L1.6410923,8.07484026 C1.6410923,7.88975594 1.76544484,7.73829475 1.9174671,7.73829475 L3.87511659,7.73829475 C4.02700986,7.73829475 4.15142689,7.88975594 4.15142689,8.07484026 L4.15142689,9.21912643 Z M11.3313025,9.21912643 C11.3313025,9.40428931 11.2068854,9.55567194 11.0549921,9.55567194 L9.09734266,9.55567194 C8.94544939,9.55567194 8.82103236,9.40421075 8.82103236,9.21912643 L8.82103236,8.07484026 C8.82103236,7.88975594 8.94544939,7.73829475 9.09734266,7.73829475 L11.0549921,7.73829475 C11.2068854,7.73829475 11.3313025,7.88975594 11.3313025,8.07484026 L11.3313025,9.21912643 Z"
                id="Shape"></path>
            <path
                d="M17.9631502,0 L14.0368498,0 C13.4651043,0 13,0.397866653 13,0.886810417 L13,4.24501413 C13,4.73402408 13.4651817,5.13189074 14.0368498,5.13189074 L15.6130193,5.13189074 L15.6130193,12.6690512 C15.6130193,12.8518673 15.7862145,13 15.9999613,13 C16.2137081,13 16.3869033,12.8518673 16.3869033,12.6690512 L16.3869033,5.13195693 L17.9631502,5.13195693 C18.5348957,5.13195693 19,4.73409027 19,4.24508032 L19,0.886876607 C19,0.397866653 18.5348957,0 17.9631502,0 Z M17.0738801,2.78440467 C16.8480608,2.95828518 16.5154454,3.04644994 16.0853207,3.04644994 L15.5167481,3.04644994 C15.4484916,3.04644994 15.3929267,3.09404038 15.3929267,3.15241974 L15.3929267,3.97244469 C15.3929267,4.06153611 15.3081864,4.13394771 15.2040216,4.13394771 L14.7734326,4.13394771 C14.6691904,4.13394771 14.5845275,4.06146992 14.5845275,3.97244469 L14.5845275,1.1597108 C14.5845275,1.07055319 14.6692678,0.998075405 14.7734326,0.998075405 L15.8581084,0.998075405 C16.5766597,0.998075405 16.8448879,1.09067488 17.06529,1.25065553 C17.2977648,1.41937323 17.4155499,1.67777806 17.4155499,2.0188539 C17.4154725,2.35211935 17.3006281,2.60959752 17.0738801,2.78440467 Z"
                id="Shape"></path>
        </g>
    </g>
</svg>