<?xml version="1.0" encoding="UTF-8"?>
<svg height="24px" version="1.1" viewBox="0 0 24 24" width="24px"
    xmlns="http://www.w3.org/2000/svg">
    <!-- Generator: Sketch 49.3 (51167) - http://www.bohemiancoding.com/sketch -->
    <title>Element/icon/waypoint/shop</title>
    <desc>Created with Sketch.</desc>
    <defs>
        <filter filterUnits="objectBoundingBox" height="300.0%" id="filter-1" width="150.0%"
            x="-25.0%" y="-100.0%">
            <feGaussianBlur in="SourceGraphic" stdDeviation="1"></feGaussianBlur>
        </filter>
    </defs>
    <g fill="none" fill-rule="evenodd" id="Element/icon/waypoint/shop" stroke="none"
        stroke-width="1">
        <ellipse cx="12" cy="21.5" fill="#000000" filter="url(#filter-1)" id="Oval-11"
            opacity="0.295969203" rx="6" ry="1.5"></ellipse>
        <path
            d="M12,1 C9.86961821,0.999959405 7.82721269,1.82894949 6.32550542,3.30321533 C4.82379816,4.77748117 3.98684158,6.77523722 4.00015647,8.85365854 C4.00015647,15.0021973 7.99731445,16.0535278 12,21 C15.9649658,16.0335693 19.9998435,14.9952393 19.9998435,8.85365854 C20.0131584,6.77523722 19.1762018,4.77748117 17.6744946,3.30321533 C16.1727873,1.82894949 14.1303818,0.999959405 12,1 Z"
            fill="#FDD835" id="Shape"></path>
        <g fill="#FFFFFF" fill-rule="nonzero" id="006-transport"
            transform="translate(7.000000, 5.000000)">
            <path
                d="M8.7973183,0.721090687 L8.58130583,0.282499109 C8.49708218,0.111512806 8.29858096,0 8.07835731,0 L0.921982408,0 C0.701758758,0 0.503257539,0.111512806 0.419033884,0.282499109 L0.203021416,0.721090687 L0.0665366803,0.998217832 C-0.112393142,1.36150008 0.080745635,1.7863435 0.511649608,1.93950812 C0.621231249,1.97846123 0.741719549,2 0.868176217,2 C1.33370884,2 1.71783536,1.70808086 1.77618599,1.33023576 C1.83453662,1.70808086 2.21866314,2 2.68419576,2 C3.14972838,2 3.5338549,1.70808086 3.59220553,1.33023576 C3.65055616,1.70808086 4.03468268,2 4.5002153,2 C4.96574792,2 5.34987444,1.70808086 5.40819478,1.33023576 C5.46654541,1.70808086 5.85067193,2 6.31620455,2 C6.78173717,2 7.16586369,1.70808086 7.22421432,1.33023576 C7.28256495,1.70808086 7.66669147,2 8.13222409,2 C8.2453504,2 8.35368989,1.98276389 8.4537282,1.95124497 C8.9055669,1.8088752 9.1180953,1.37229492 8.93353037,0.997581343 L8.7973183,0.721090687 Z"
                id="Shape"></path>
            <path
                d="M8.30595534,4.70161609 L8.08679417,4.70161609 L8.08679417,2.00245555 C7.79553961,2.2441912 7.43929124,2.38782162 7.05786849,2.38832832 L7.05786849,4.70157711 L2.9421658,4.70157711 L2.9421658,2.38832832 C2.56074306,2.38782162 2.20452899,2.24415222 1.91625831,2 C1.91559523,2.00057166 1.91458917,2.90109737 1.91324013,4.70157711 L1.69407896,4.70157711 C1.31076985,4.70157711 1,5.05474814 1,5.49035562 L1,7.41496426 C1,7.85057174 1.31073555,8.20374277 1.69407896,8.20374277 L1.91324013,8.20374277 L1.91324013,9.41534429 C1.91324013,9.73823015 2.14358229,10 2.42770297,10 C2.71182364,10 2.9421658,9.73823015 2.9421658,9.41534429 L2.9421658,8.20374277 L4.25946504,8.20374277 C4.25946504,6.8370126 5.24749165,6 6.45013428,6 C7.62743103,6 8.57961527,6.79086378 8.61964048,8.11795429 C8.84518098,7.987693 9,7.72218135 9,7.41500324 L9,5.49039459 C9.0000343,5.05478711 8.68926445,4.70161609 8.30595534,4.70161609 Z"
                id="Shape"></path>
            <path
                d="M6.5,7 C5.67290419,7 5,7.67289689 5,8.50001627 C5,9.32710311 5.67290419,10 6.5,10 C7.32709581,10 8,9.32710311 8,8.50001627 C8,7.67289689 7.32712835,7 6.5,7 Z M6.5,9 C6.224304,9 6,8.77570297 6,8.50001554 C6,8.22429703 6.224304,8 6.5,8 C6.775696,8 7,8.22429703 7,8.50001554 C7,8.77573404 6.77572707,9 6.5,9 Z"
                id="Shape"></path>
        </g>
    </g>
</svg>