<?xml version="1.0" encoding="UTF-8"?>
<svg height="30px" version="1.1" viewBox="0 0 30 30" width="30px"
    xmlns="http://www.w3.org/2000/svg">
    <!-- Generator: Sketch 49.3 (51167) - http://www.bohemiancoding.com/sketch -->
    <title>Element/icon/waypoint/shop-roundsquare</title>
    <desc>Created with Sketch.</desc>
    <defs></defs>
    <g fill="none" fill-rule="evenodd" id="Element/icon/waypoint/shop-roundsquare" stroke="none"
        stroke-width="1">
        <g fill="#E0CA3C" fill-rule="nonzero" id="Group" transform="translate(6.000000, 5.000000)">
            <path
                d="M17.5946366,1.08163603 L17.1626117,0.423748663 C16.9941644,0.167269209 16.5971619,0 16.1567146,0 L1.84396482,0 C1.40351752,0 1.00651508,0.167269209 0.838067768,0.423748663 L0.406042832,1.08163603 L0.133073361,1.49732675 C-0.224786285,2.04225011 0.16149127,2.67951525 1.02329922,2.90926218 C1.2424625,2.96769184 1.4834391,3 1.73635243,3 C2.66741767,3 3.43567071,2.56212129 3.55237198,1.99535363 C3.66907324,2.56212129 4.43732628,3 5.36839152,3 C6.29945676,3 7.0677098,2.56212129 7.18441106,1.99535363 C7.30111233,2.56212129 8.06936537,3 9.00043061,3 C9.93149585,3 10.6997489,2.56212129 10.8163896,1.99535363 C10.9330908,2.56212129 11.7013439,3 12.6324091,3 C13.5634743,3 14.3317274,2.56212129 14.4484286,1.99535363 C14.5651299,2.56212129 15.3333829,3 16.2644482,3 C16.4907008,3 16.7073798,2.97414583 16.9074564,2.92686746 C17.8111338,2.7133128 18.2361906,2.05844239 17.8670607,1.49637201 L17.5946366,1.08163603 Z"
                id="Shape"></path>
            <path
                d="M15.6119107,8.74093418 L15.1735883,8.74093418 L15.1735883,3.00521805 C14.5910792,3.5189063 13.8785825,3.82412095 13.115737,3.82519769 L13.115737,8.74085136 L4.88433161,8.74085136 L4.88433161,3.82519769 C4.12148611,3.82412095 3.40905798,3.51882348 2.83251662,3 C2.83119045,3.00121478 2.82917833,4.9148319 2.82648026,8.74085136 L2.38815792,8.74085136 C1.6215397,8.74085136 1,9.49133979 1,10.4170057 L1,14.5067991 C1,15.432465 1.62147111,16.1829534 2.38815792,16.1829534 L2.82648026,16.1829534 L2.82648026,18.7576066 C2.82648026,19.4437391 3.28716458,20 3.85540593,20 C4.42364728,20 4.88433161,19.4437391 4.88433161,18.7576066 L4.88433161,16.1829534 L7.51893009,16.1829534 C7.51893009,13.2786518 9.49498331,11.5 11.9002686,11.5 C14.2548621,11.5 16.1592305,13.1805855 16.239281,16.0006529 C16.690362,15.7238476 17,15.1596354 17,14.5068819 L17,10.4170885 C17.0000686,9.49142261 16.3785289,8.74093418 15.6119107,8.74093418 Z"
                id="Shape"></path>
            <path
                d="M12,13 C10.3458084,13 9,14.3457938 9,16.0000325 C9,17.6542062 10.3458084,19 12,19 C13.6541916,19 15,17.6542062 15,16.0000325 C15,14.3457938 13.6542567,13 12,13 Z M12,17 C11.448608,17 11,16.5514059 11,16.0000311 C11,15.4485941 11.448608,15 12,15 C12.551392,15 13,15.4485941 13,16.0000311 C13,16.5514681 12.5514541,17 12,17 Z"
                id="Shape"></path>
        </g>
    </g>
</svg>