<?xml version="1.0" encoding="UTF-8"?>
<svg height="30px" version="1.1" viewBox="0 0 30 30" width="30px"
    xmlns="http://www.w3.org/2000/svg">
    <!-- Generator: Sketch 49.3 (51167) - http://www.bohemiancoding.com/sketch -->
    <title>Element/icon/waypoint/ski-roundsquare</title>
    <desc>Created with Sketch.</desc>
    <defs></defs>
    <g fill="none" fill-rule="evenodd" id="Element/icon/waypoint/ski-roundsquare" stroke="none"
        stroke-width="1">
        <g fill="#6D4C41" fill-rule="nonzero" id="Group" transform="translate(7.000000, 6.000000)">
            <circle cx="15.5" cy="1.5" id="Oval" r="1.5"></circle>
            <path
                d="M12.6836238,2.19973974 C13.302644,2.19973974 14.2153249,2.62004767 14.2153249,3.63424008 C14.2153249,4.64843249 13.6303957,6.5158766 13.6303957,6.5158766 C13.6303957,6.5158766 15.1585083,7.62849555 15.5388918,7.96966323 C16.3355438,8.68259061 16.0646104,9.32236313 14.998221,8.82158485 C13.2667587,8.00890083 12.4539583,7.60787918 12.3235753,7.10045046 C12.1931923,6.59302173 12.3086231,5.56353331 12.3086231,5.56353331 L11.3080234,6.02573903 L7.07476259,2.56617909 C7.07476259,2.56617909 6.68600595,2.87342951 6.48265632,2.87342951 C6.27811052,2.87342951 6.03409097,2.70716846 6.03409097,2.70716846 L6.50478554,2.00421674 L6,1.31922122 L6.70095813,1.65107827 C6.68780021,1.65107827 7.1345713,1 7.1345713,1 C7.1345713,1 7.36603102,1.15163008 7.42045695,1.45356015 C7.47488288,1.75549021 7.37380616,2.04677957 7.37380616,2.04677957 L9.19617767,3.53182327 C9.19617767,3.53182327 10.2715383,2.19973974 12.6836238,2.19973974 Z"
                id="Shape"></path>
            <path
                d="M7.4770773,5 C7.4770773,5 11.4298366,7.63312186 11.9557224,8.02625246 C12.4822975,8.42003938 13.7346364,9.46226209 12.4154418,11.0065631 C11.1238165,12.5187049 9.73983384,14 9.73983384,14 L8.94997121,13.677751 L7.93541817,13.176329 C7.93541817,13.176329 9.83701589,10.9173047 10.17543,10.4874207 C10.5131548,10.058193 10.4056343,9.70378473 9.94660416,9.37562897 C9.50204797,9.0586305 8.7473363,8.64121636 8.07946816,8.1995187 C7.41918161,7.76241523 6.38533001,6.42222708 7.4770773,5 Z"
                id="Shape"></path>
            <path
                d="M0.388562511,9.63009175 C0.00115432884,9.37156126 -0.116299611,8.82719332 0.126221792,8.41421192 C0.368743196,8.00123053 0.879402022,7.87602333 1.2668102,8.13455382 L13.1604035,16.0773517 C13.1829518,16.0890718 13.2499088,16.1181186 13.3465927,16.1496357 C13.5983347,16.231699 13.8507041,16.258691 14.0530258,16.2096712 C14.2276004,16.1673741 14.364311,16.070637 14.4860463,15.8780623 C14.7414646,15.4740129 15.255786,15.3671915 15.6348153,15.6394702 C16.0138447,15.9117489 16.1140513,16.4600211 15.858633,16.8640706 C15.4965082,17.4369205 14.9970144,17.790365 14.4198587,17.930202 C13.8939658,18.0576187 13.3665717,18.0012117 12.8625788,17.8369193 C12.67636,17.7762154 12.5307338,17.713041 12.3585778,17.618085 L0.388562511,9.63009175 Z"
                id="Shape"></path>
        </g>
    </g>
</svg>