<?xml version="1.0" encoding="UTF-8"?>
<svg height="30px" version="1.1" viewBox="0 0 30 30" width="30px"
    xmlns="http://www.w3.org/2000/svg">
    <!-- Generator: Sketch 49.3 (51167) - http://www.bohemiancoding.com/sketch -->
    <title>Element/icon/waypoint/tent-roundsquare</title>
    <desc>Created with Sketch.</desc>
    <defs></defs>
    <g fill="none" fill-rule="evenodd" id="Element/icon/waypoint/tent-roundsquare" stroke="none"
        stroke-width="1">
        <path
            d="M23.4375,22.8390076 L22.65,22.8390076 L15.646875,9.74881818 L17.165625,6.87536196 C17.3209551,6.59483766 17.2265152,6.23747928 16.9546875,6.07717968 C16.6828598,5.91688008 16.3365801,6.01434146 16.18125,6.29486576 L15,8.52977615 L13.790625,6.29486576 C13.6352949,6.01434146 13.2890152,5.91688008 13.0171875,6.07717968 C12.7453598,6.23747928 12.6509199,6.59483766 12.80625,6.87536196 L14.353125,9.74881818 L7.35,22.8390076 L6.5625,22.8390076 C6.25183983,22.8390076 6,23.0989046 6,23.4195038 C6,23.740103 6.25183983,24 6.5625,24 L23.4375,24 C23.7481602,24 24,23.740103 24,23.4195038 C24,23.0989046 23.7481602,22.8390076 23.4375,22.8390076 Z M15.5301724,18 C16.2097469,19.9642985 17.4113628,21.6958195 19,23 L12,23 C13.3577586,21.9197531 14.8965517,20.0061728 15.5301724,18 Z"
            fill="#0B9676" fill-rule="nonzero" id="Shape"></path>
    </g>
</svg>