<?xml version="1.0" encoding="UTF-8"?>
<svg height="24px" version="1.1" viewBox="0 0 24 24" width="24px"
    xmlns="http://www.w3.org/2000/svg">
    <!-- Generator: Sketch 49.3 (51167) - http://www.bohemiancoding.com/sketch -->
    <title>Element/icon/waypoint/tree</title>
    <desc>Created with Sketch.</desc>
    <defs>
        <filter filterUnits="objectBoundingBox" height="300.0%" id="filter-1" width="150.0%"
            x="-25.0%" y="-100.0%">
            <feGaussianBlur in="SourceGraphic" stdDeviation="1"></feGaussianBlur>
        </filter>
    </defs>
    <g fill="none" fill-rule="evenodd" id="Element/icon/waypoint/tree" stroke="none"
        stroke-width="1">
        <ellipse cx="12" cy="21.5" fill="#000000" filter="url(#filter-1)" id="Oval-11"
            opacity="0.295969203" rx="6" ry="1.5"></ellipse>
        <path
            d="M12,1 C9.86961821,0.999959405 7.82721269,1.82894949 6.32550542,3.30321533 C4.82379816,4.77748117 3.98684158,6.77523722 4.00015647,8.85365854 C4.00015647,15.0021973 7.99731445,16.0535278 12,21 C15.9649658,16.0335693 19.9998435,14.9952393 19.9998435,8.85365854 C20.0131584,6.77523722 19.1762018,4.77748117 17.6744946,3.30321533 C16.1727873,1.82894949 14.1303818,0.999959405 12,1 Z"
            fill="#0B9676" id="Shape"></path>
        <path
            d="M16.6905153,7.25648096 C16.6905153,6.42185485 16.034063,5.73537432 15.1921286,5.65105792 C14.9558321,5.03623607 14.3442819,4.59716816 13.6246498,4.59716816 C13.3096393,4.59716816 13.0160558,4.68273355 12.7645922,4.82873533 C12.4786019,4.33459984 11.9319126,4 11.3035531,4 C10.4704871,4 9.78151748,4.58825742 9.65367003,5.3572834 C9.58567923,5.34926747 9.51695423,5.34373088 9.4467415,5.34373088 C8.52276987,5.34373088 7.77357652,6.06641359 7.77357652,6.95806465 C7.77357652,7.00174215 7.77689974,7.04452485 7.78041618,7.08730755 C7.31188052,7.37342033 7,7.87646655 7,8.45100369 C7,8.95887811 7.24352262,9.41129348 7.62354851,9.7072118 C7.62188689,9.7362742 7.61893077,9.76513155 7.61893077,9.79456679 C7.61893077,10.6860501 8.36795023,11.4089006 9.29209576,11.4089006 C9.5690438,11.4089006 9.82954963,11.3429462 10.0595861,11.2281507 C10.378287,11.4490175 10.8346504,11.7253247 11.055606,11.6702385 C11.055606,11.6702385 11.1378171,12.8988196 11.1200804,13.2107885 C11.0862685,13.8043961 10.9016945,14.465207 10.7718183,15 L12.7834689,15 C12.7834689,15 12.4869293,13.8077888 12.4739842,13.4097327 C12.4610584,13.0116578 12.6029523,12.2786476 12.6029523,12.2786476 L13.3007902,11.5821938 C13.5694109,11.7593831 13.8938501,11.8601042 14.2437931,11.8601042 C15.1088162,11.8601042 15.8203335,11.2251307 15.9077226,10.4127814 C16.5449311,10.1847935 17,9.59314324 17,8.89881456 C17,8.48880905 16.8403694,8.11588188 16.5794772,7.83103673 C16.650057,7.65239334 16.6905153,7.45917214 16.6905153,7.25648096 Z M10.4460846,10.9616303 C10.5802114,10.8380918 10.6927372,10.6937118 10.7786386,10.5334491 L11.1071353,11.1974664 C11.1069614,11.1974851 10.9282996,11.2735991 10.4460846,10.9616303 Z M11.6743629,11.3716358 C11.5043762,11.4014066 11.2148695,10.8963844 11.0094094,10.4858382 C11.237224,10.5979681 11.4944066,10.6625056 11.7678382,10.6625056 C11.8380509,10.6625056 11.9069691,10.6569877 11.9749599,10.6487853 C11.9221168,10.9773266 11.8290086,11.344363 11.6743629,11.3716358 Z M12.396584,11.6948269 C12.0034005,11.8001712 12.238789,11.0143863 12.3514887,10.5594729 C12.4329849,10.5302428 12.5118728,10.4958488 12.5868771,10.4550049 C12.6321464,10.7865661 12.7814209,11.0856908 13.002589,11.3222353 C12.8109821,11.48645 12.5903742,11.6429471 12.396584,11.6948269 Z"
            fill="#FFFFFF" fill-rule="nonzero" id="Shape"></path>
    </g>
</svg>