<?xml version="1.0" encoding="UTF-8"?>
<svg height="30px" version="1.1" viewBox="0 0 30 30" width="30px"
    xmlns="http://www.w3.org/2000/svg">
    <!-- Generator: Sketch 49.3 (51167) - http://www.bohemiancoding.com/sketch -->
    <title>Element/icon/waypoint/tree-roundsquare</title>
    <desc>Created with Sketch.</desc>
    <defs></defs>
    <g fill="none" fill-rule="evenodd" id="Element/icon/waypoint/tree-roundsquare" stroke="none"
        stroke-width="1">
        <path
            d="M23.4429275,11.6248307 C23.4429275,10.1832038 22.2613134,8.99746473 20.7458315,8.85182731 C20.3204977,7.78986231 19.2197075,7.03147227 17.9243697,7.03147227 C17.3573507,7.03147227 16.8289004,7.17926704 16.376266,7.43145193 C15.8614835,6.57794518 14.8774427,6 13.7463957,6 C12.2468768,6 11.0067315,7.01608101 10.7766061,8.34439859 C10.6542226,8.3305529 10.5305176,8.3209897 10.4041347,8.3209897 C8.74098576,8.3209897 7.39243774,9.56925984 7.39243774,11.1093844 C7.39243774,11.1848274 7.39841954,11.2587247 7.40474912,11.3326221 C6.56138493,11.8268169 6,12.695715 6,13.6880973 C6,14.5653349 6.43834071,15.3467796 7.12238731,15.8579113 C7.11939641,15.90811 7.11407539,15.9579545 7.11407539,16.0087972 C7.11407539,17.548632 8.46231041,18.7971919 10.1257724,18.7971919 C10.6242788,18.7971919 11.0931893,18.6832708 11.5072551,18.4849875 C12.0809166,18.8664848 12.9023707,19.3437427 13.3000908,19.2485938 C13.3000908,19.2485938 13.4480708,21.3706885 13.4161447,21.9095437 C13.3552833,22.9348659 13.02305,24.0762666 12.7892729,25 L16.410244,25 C16.410244,25 15.8764727,22.9407262 15.8531716,22.2531746 C15.8299051,21.5655908 16.0853141,20.2994823 16.0853141,20.2994823 L17.3414224,19.0965165 C17.8249396,19.4025709 18.4089302,19.5765437 19.0388276,19.5765437 C20.5958692,19.5765437 21.8766003,18.4797712 22.0339007,17.0766225 C23.180876,16.6828251 24,15.6608838 24,14.4615888 C24,13.7533974 23.712665,13.1092505 23.2430589,12.6172453 C23.3701026,12.3086794 23.4429275,11.9749337 23.4429275,11.6248307 Z M12,18.6369697 C12.2028994,18.4531917 12.3731221,18.2384095 12.5030689,18 L13,18.9878037 C12.9997369,18.9878314 12.7294675,19.10106 12,18.6369697 Z M13.6886781,18.9985831 C13.5126266,19.0321445 13.2127907,18.4628195 13,18 C13.2359427,18.1264069 13.5023012,18.1991618 13.7854885,18.1991618 C13.8582063,18.1991618 13.9295834,18.1929413 14,18.1836946 C13.9452715,18.5540679 13.8488414,18.9678377 13.6886781,18.9985831 Z M16.2649566,19.9846187 C15.7880514,20.1532462 16.0735618,18.8954179 16.210259,18.167225 C16.3091084,18.1204355 16.4047941,18.0653801 16.4957694,18 C16.5506779,18.5307396 16.7317379,19.009557 17,19.3882006 C16.7675936,19.6510638 16.5000111,19.9015731 16.2649566,19.9846187 Z"
            fill="#0B9676" fill-rule="nonzero" id="Shape"></path>
    </g>
</svg>