<?xml version="1.0" encoding="UTF-8"?>
<svg height="30px" version="1.1" viewBox="0 0 30 30" width="30px"
    xmlns="http://www.w3.org/2000/svg">
    <!-- Generator: Sketch 49.3 (51167) - http://www.bohemiancoding.com/sketch -->
    <title>Element/icon/waypoint/warn-roundsquare Copy 9</title>
    <desc>Created with Sketch.</desc>
    <defs></defs>
    <g fill="none" fill-rule="evenodd" id="Element/icon/waypoint/warn-roundsquare-Copy-9"
        stroke="none" stroke-width="1">
        <path
            d="M23.517238,7.48183681 C23.2107908,7.17345844 22.7936419,7 22.3584722,7 C21.9233025,7 21.5061535,7.17345844 21.1997063,7.48183681 L17.7397294,10.9677618 L9.38355871,9.86008469 C9.38355871,9.86008469 8.76337417,9.76234847 8.50224384,10.0229784 L7.52300509,11.0003405 C7.39026031,11.1115061 7.33857386,11.292062 7.39243992,11.4564429 C7.4577225,11.6193365 7.91470059,11.8473877 8.04526575,11.9125452 L13.8554157,14.8446316 L11.5052427,17.1903008 L11.2767536,17.4183519 L8.30639609,16.9622496 C8.12583308,16.9266446 7.93982309,16.9885291 7.81677671,17.1251433 L7.13130958,17.8744543 C7.03338571,17.9721905 6.83753796,18.2002416 7.26187475,18.3957141 L11.0482646,19.9594935 C11.0482646,19.9594935 12.4191988,23.3151035 12.6150466,23.7386271 C12.8108943,24.1621507 13.0393834,23.9666783 13.1373073,23.8689421 L13.8554157,23.1522098 C13.9922922,23.0293992 14.0542955,22.8437457 14.0186221,22.6635287 L13.5942853,19.6988636 L13.8227744,19.4708124 L16.1403061,17.1251433 L19.0780224,22.8915799 C19.1433049,23.0544736 19.371794,23.5105759 19.5350004,23.5431547 C19.6996969,23.5969175 19.8805995,23.5453301 19.9919785,23.4128397 L20.9712173,22.4354776 C21.2323476,22.1748477 21.1344237,21.5558517 21.1344237,21.5558517 L20.0246198,13.2482734 L23.517238,9.79492721 C23.8262085,9.48906727 24,9.07271773 24,8.63838201 C24,8.20404629 23.8262085,7.78769675 23.517238,7.48183681 Z"
            fill="#1E88E5" fill-rule="nonzero" id="Shape"></path>
    </g>
</svg>