<?xml version="1.0" encoding="UTF-8"?>
<svg height="24px" version="1.1" viewBox="0 0 24 24" width="24px"
    xmlns="http://www.w3.org/2000/svg">
    <!-- Generator: Sketch 49.3 (51167) - http://www.bohemiancoding.com/sketch -->
    <title>Element/icon/waypoint/warn</title>
    <desc>Created with Sketch.</desc>
    <defs>
        <filter filterUnits="objectBoundingBox" height="300.0%" id="filter-1" width="150.0%"
            x="-25.0%" y="-100.0%">
            <feGaussianBlur in="SourceGraphic" stdDeviation="1"></feGaussianBlur>
        </filter>
    </defs>
    <g fill="none" fill-rule="evenodd" id="Element/icon/waypoint/warn" stroke="none"
        stroke-width="1">
        <ellipse cx="12" cy="21.5" fill="#000000" filter="url(#filter-1)" id="Oval-11"
            opacity="0.295969203" rx="6" ry="1.5"></ellipse>
        <path
            d="M12,1 C9.86961821,0.999959405 7.82721269,1.82894949 6.32550542,3.30321533 C4.82379816,4.77748117 3.98684158,6.77523722 4.00015647,8.85365854 C4.00015647,15.0021973 7.99731445,16.0535278 12,21 C15.9649658,16.0335693 19.9998435,14.9952393 19.9998435,8.85365854 C20.0131584,6.77523722 19.1762018,4.77748117 17.6744946,3.30321533 C16.1727873,1.82894949 14.1303818,0.999959405 12,1 Z"
            fill="#E53935" id="Shape"></path>
        <path
            d="M16.9260909,12.1174102 L12.5642319,4.31739442 C12.4554708,4.12239057 12.242333,4 12.0103549,4 L12.0097344,4 C11.7777563,4 11.5652596,4.12179846 11.4558574,4.31680231 L7.07451695,12.1167984 C6.97016091,12.304006 6.97580681,12.5283986 7.08897292,12.7084021 C7.20275947,12.8889978 7.4077283,13 7.62839396,13 L16.3709523,13 C16.5922591,13 16.7965661,12.8895899 16.9103734,12.7084021 C17.0241599,12.5278065 17.0298265,12.3034139 16.9260909,12.1174102 Z M12.019043,12 C11.7430306,12 11.519043,11.7759959 11.519043,11.5 C11.519043,11.2240041 11.743047,11 12.019043,11 C12.2945455,11 12.519043,11.2240041 12.519043,11.5 C12.519043,11.7759959 12.2950553,12 12.019043,12 Z M12.5,9.33334064 C12.5,9.70201101 12.2755025,10 12,10 C11.7239876,10 11.5,9.70198908 11.5,9.33334064 L11.5,6.66665936 C11.5,6.2986469 11.7240041,6 12,6 C12.2755025,6 12.5,6.29866883 12.5,6.66665936 L12.5,9.33334064 Z"
            fill="#FFFFFF" fill-rule="nonzero" id="Shape"></path>
    </g>
</svg>