<?xml version="1.0" encoding="UTF-8"?>
<svg height="30px" version="1.1" viewBox="0 0 30 30" width="30px"
    xmlns="http://www.w3.org/2000/svg">
    <!-- Generator: Sketch 49.3 (51167) - http://www.bohemiancoding.com/sketch -->
    <title>Element/icon/waypoint/warn-roundsquare</title>
    <desc>Created with Sketch.</desc>
    <defs></defs>
    <g fill="none" fill-rule="evenodd" id="Element/icon/waypoint/warn-roundsquare" stroke="none"
        stroke-width="1">
        <path
            d="M22.8817454,21.529017 L15.902771,8.5289907 C15.7287533,8.20398429 15.3877328,8 15.0165678,8 L15.0155751,8 C14.6444101,8 14.3044154,8.20299743 14.1293719,8.52800384 L7.11922711,21.5279973 C6.95225745,21.84001 6.96129089,22.2139976 7.14235668,22.5140036 C7.32441516,22.8149963 7.65236528,23 8.00543033,23 L21.9935237,23 C22.3476146,23 22.6745058,22.8159832 22.8565974,22.5140036 C23.0386559,22.2130108 23.0477224,21.8390231 22.8817454,21.529017 Z M15,21 C14.4479753,21 14,20.5519918 14,20 C14,19.4480082 14.4480082,19 15,19 C15.551005,19 16,19.4480082 16,20 C16,20.5519918 15.5520247,21 15,21 Z M16,17.000011 C16,17.5530165 15.551005,18 15,18 C14.4479753,18 14,17.5529836 14,17.000011 L14,12.999989 C14,12.4479704 14.4480082,12 15,12 C15.551005,12 16,12.4480032 16,12.999989 L16,17.000011 Z"
            fill="#E53935" fill-rule="nonzero" id="Shape"></path>
    </g>
</svg>