<?xml version="1.0" encoding="UTF-8"?>
<svg height="30px" version="1.1" viewBox="0 0 30 30" width="30px"
    xmlns="http://www.w3.org/2000/svg">
    <!-- Generator: Sketch 49.3 (51167) - http://www.bohemiancoding.com/sketch -->
    <title>Element/icon/waypoint/wave-roundsquare</title>
    <desc>Created with Sketch.</desc>
    <defs></defs>
    <g fill="none" fill-rule="evenodd" id="Element/icon/waypoint/wave-roundsquare" stroke="none"
        stroke-width="1">
        <g fill="#1E88E5" fill-rule="nonzero" id="Group" transform="translate(7.000000, 8.000000)">
            <path
                d="M3.27637781,4 C4.26590128,4 5.2051821,3.43229118 5.88828736,2.46450064 C6.57148123,3.43241608 7.51067344,4 8.50019691,4 C9.48989761,4 10.4290012,3.43254099 11.111752,2.46487537 C11.7948573,3.43254099 12.7339609,4 13.7236616,4 C15.0331608,4 16.2543145,3.0059787 16.9106591,1.40602659 C17.0943505,0.958104949 16.985713,0.385025061 16.6679525,0.126089881 C16.350192,-0.132595482 15.9436429,0.0202924392 15.7599515,0.468214077 C15.3405537,1.49096432 14.5602418,2.12637352 13.7237502,2.12637352 C12.8870814,2.12637352 12.1065922,1.49096432 11.6871944,0.468214077 C11.5683666,0.178676331 11.3490533,0.000182181589 11.111752,0.000307090022 C10.8743621,0.000307090022 10.6551375,0.17880124 10.5363982,0.468463894 C10.1172663,1.49121414 9.33713156,2.12637352 8.50037414,2.12637352 C7.66397115,2.12637352 6.88348196,1.49083941 6.46346394,0.467839352 C6.34463606,0.178426514 6.12541146,0.000182181589 5.88828736,0.000182181589 L5.88811014,0.000182181589 C5.65089742,0.000182181589 5.43167283,0.178551423 5.31293355,0.468089169 C4.89353581,1.49083941 4.11322384,2.12624861 3.27664364,2.12624861 C2.43997482,2.12624861 1.65948563,1.49083941 1.24008789,0.468089169 C1.05639646,0.0202924392 0.649847371,-0.133095116 0.3320869,0.125964973 C0.014326428,0.384900153 -0.0943997567,0.95798004 0.0893802817,1.40590168 C0.745370458,3.0059787 1.96661274,4 3.27637781,4 Z"
                id="Shape"></path>
            <path
                d="M16.6678477,5.12611632 C16.3500893,4.86743272 15.9435427,5.02019469 15.7598524,5.46823818 C15.3404573,6.49098144 14.5601503,7.1263863 13.7236639,7.1263863 C12.8870004,7.1263863 12.1065161,6.49098144 11.687121,5.46823818 C11.5682938,5.17870241 11.348982,5.00020947 11.1116822,5.00033438 C10.8742937,5.00033438 10.6550705,5.17882731 10.536332,5.46848799 C10.1172027,6.49123126 9.33707288,7.1263863 8.50032071,7.1263863 C7.66392299,7.1263863 6.8834387,6.49085653 6.46342332,5.46786345 C6.34459618,5.17845259 6.12537296,5.00020947 5.88825035,5.00020947 L5.88807313,5.00020947 C5.65086191,5.00020947 5.43163869,5.1785775 5.31290016,5.46811327 C4.89350506,6.49085653 4.11319799,7.12626139 3.27662305,7.12626139 C2.43995949,7.12626139 1.65947521,6.49085653 1.2400801,5.46811327 C1.05638982,5.02019469 0.649843287,4.86693309 0.332084812,5.12599141 C0.014326338,5.38492482 -0.0943991634,5.9580008 0.08937972,6.40591938 C0.745631606,8.00598548 1.96686621,9 3.27671166,9 C4.26622891,9 5.20550383,8.43229505 5.8886048,7.46451112 C6.57179438,8.43241996 7.51098068,9 8.50049793,9 C9.49019241,9 10.4292901,8.43254486 11.1120366,7.46488584 C11.7951376,8.43254486 12.7342353,9 13.7239298,9 C15.0334208,9 16.2545668,8.00611039 16.9109073,6.40591938 C17.0942431,5.95812571 16.9856062,5.38504973 16.6678477,5.12611632 Z"
                id="Shape"></path>
            <path
                d="M16.6678477,10.1260626 C16.3500893,9.86725046 15.9435427,10.0201395 15.7598524,10.4681892 C15.3404573,11.4909466 14.5601503,12.1263603 13.7236639,12.1263603 C12.8870004,12.1263603 12.1065161,11.4909466 11.687121,10.4681892 C11.5682938,10.1786494 11.348982,10.000154 11.1116822,10.0002789 C10.8742937,10.0002789 10.6550705,10.1787743 10.536332,10.468439 C10.1172027,11.4911964 9.33707288,12.1263603 8.50032071,12.1263603 C7.66392299,12.1263603 6.8834387,11.4908217 6.46342332,10.4678144 C6.34459618,10.1783996 6.12537296,10.000154 5.88825035,10.000154 L5.88807313,10.000154 C5.65086191,10.000154 5.43163869,10.1785245 5.31290016,10.4680643 C4.89350506,11.4908217 4.11319799,12.1262354 3.27662305,12.1262354 C2.43995949,12.1262354 1.65947521,11.4908217 1.2400801,10.4680643 C1.05638982,10.0201395 0.649843287,9.86700064 0.332084812,10.1259376 C0.014326338,10.3848747 -0.0943991634,10.9579586 0.08937972,11.4058834 C0.745631606,13.0059717 1.96686621,14 3.27671166,14 C4.26622891,14 5.20550383,13.4322872 5.8886048,12.4644898 C6.57179438,13.4324121 7.51098068,14 8.50049793,14 C9.49019241,14 10.4292901,13.432537 11.1120366,12.4648645 C11.7951376,13.432537 12.7342353,14 13.7239298,14 C15.0334208,14 16.2545668,13.0059717 16.9109073,11.4058834 C17.0942431,10.9580835 16.9856062,10.3849996 16.6678477,10.1260626 Z"
                id="Shape"></path>
        </g>
    </g>
</svg>